<svg width="23" height="22" viewBox="0 0 23 22" fill="none" xmlns="http://www.w3.org/2000/svg">
<path d="M21.3343 17.33C21.3343 17.69 21.2543 18.06 21.0843 18.42C20.9143 18.78 20.6943 19.12 20.4043 19.44C19.9143 19.98 19.3743 20.37 18.7643 20.62C18.1643 20.87 17.5143 21 16.8143 21C15.7943 21 14.7043 20.76 13.5543 20.27C12.4043 19.78 11.2543 19.12 10.1143 18.29C8.95237 17.4401 7.85595 16.5041 6.83426 15.49C5.82303 14.472 4.89036 13.3789 4.04426 12.22C3.22426 11.08 2.56426 9.94 2.08426 8.81C1.60426 7.67 1.36426 6.58 1.36426 5.54C1.36426 4.86 1.48426 4.21 1.72426 3.61C1.96426 3 2.34426 2.44 2.87426 1.94C3.51426 1.31 4.21426 1 4.95426 1C5.23426 1 5.51426 1.06 5.76426 1.18C6.02426 1.3 6.25426 1.48 6.43426 1.74L8.75426 5.01C8.93426 5.26 9.06426 5.49 9.15426 5.71C9.24426 5.92 9.29426 6.13 9.29426 6.32C9.29426 6.56 9.22426 6.8 9.08426 7.03C8.95426 7.26 8.76426 7.5 8.52426 7.74L7.76426 8.53C7.65426 8.64 7.60426 8.77 7.60426 8.93C7.60426 9.01 7.61426 9.08 7.63426 9.16C7.66426 9.24 7.69426 9.3 7.71426 9.36C7.89426 9.69 8.20426 10.12 8.64426 10.64C9.09426 11.16 9.57426 11.69 10.0943 12.22C10.6343 12.75 11.1543 13.24 11.6843 13.69C12.2043 14.13 12.6343 14.43 12.9743 14.61C13.0243 14.63 13.0843 14.66 13.1543 14.69C13.2343 14.72 13.3143 14.73 13.4043 14.73C13.5743 14.73 13.7043 14.67 13.8143 14.56L14.5743 13.81C14.8243 13.56 15.0643 13.37 15.2943 13.25C15.5243 13.11 15.7543 13.04 16.0043 13.04C16.1943 13.04 16.3943 13.08 16.6143 13.17C16.8343 13.26 17.0643 13.39 17.3143 13.56L20.6243 15.91C20.8843 16.09 21.0643 16.3 21.1743 16.55C21.2743 16.8 21.3343 17.05 21.3343 17.33Z" stroke="#E8A250" stroke-width="1.5" stroke-miterlimit="10"/>
</svg>
