<svg width="25" height="25" viewBox="0 0 25 25" fill="none" xmlns="http://www.w3.org/2000/svg">
<path d="M8.91975 6.4104V5.6104C8.91975 3.8404 8.91975 2.4104 12.1197 2.4104H13.7197C16.9197 2.4104 16.9197 3.8404 16.9197 5.6104V6.4104M8.91975 22.4104H16.9197C20.9397 22.4104 21.6597 20.8004 21.8697 18.8404L22.6197 10.8404C22.8897 8.4004 22.1897 6.4104 17.9197 6.4104H7.91975C3.64975 6.4104 2.94975 8.4004 3.21975 10.8404L3.96975 18.8404C4.17975 20.8004 4.89975 22.4104 8.91975 22.4104Z" stroke="black" stroke-width="1.5" stroke-miterlimit="10" stroke-linecap="round" stroke-linejoin="round"/>
<path d="M14.92 14.4304V13.4104C14.92 12.4104 14.92 12.4104 13.92 12.4104H11.92C10.92 12.4104 10.92 12.4104 10.92 13.4104V14.4404M14.92 14.4304C14.92 15.5204 14.91 16.4104 12.92 16.4104C10.94 16.4104 10.92 15.5304 10.92 14.4404M14.92 14.4304C17.6842 14.0863 20.3162 13.0473 22.57 11.4104M10.92 14.4404C8.33004 14.1504 5.79004 13.2204 3.54004 11.6804" stroke="black" stroke-width="1.5" stroke-miterlimit="10" stroke-linecap="round" stroke-linejoin="round"/>
</svg>
