<svg width="24" height="25" viewBox="0 0 24 25" fill="none" xmlns="http://www.w3.org/2000/svg">
<path d="M21.97 18.9054C21.97 19.2654 21.89 19.6354 21.72 19.9954C21.55 20.3554 21.33 20.6954 21.04 21.0154C20.55 21.5554 20.01 21.9454 19.4 22.1954C18.8 22.4454 18.15 22.5754 17.45 22.5754C16.43 22.5754 15.34 22.3354 14.19 21.8454C13.04 21.3554 11.89 20.6954 10.75 19.8654C9.58811 19.0155 8.49169 18.0796 7.47 17.0654C6.45877 16.0474 5.5261 14.9543 4.68 13.7954C3.86 12.6554 3.2 11.5154 2.72 10.3854C2.24 9.24544 2 8.15544 2 7.11544C2 6.43544 2.12 5.78544 2.36 5.18544C2.6 4.57544 2.98 4.01544 3.51 3.51544C4.15 2.88544 4.85 2.57544 5.59 2.57544C5.87 2.57544 6.15 2.63544 6.4 2.75544C6.66 2.87544 6.89 3.05544 7.07 3.31544L9.39 6.58544C9.57 6.83544 9.7 7.06544 9.79 7.28544C9.88 7.49544 9.93 7.70544 9.93 7.89544C9.93 8.13544 9.86 8.37544 9.72 8.60544C9.59 8.83544 9.4 9.07544 9.16 9.31544L8.4 10.1054C8.29 10.2154 8.24 10.3454 8.24 10.5054C8.24 10.5854 8.25 10.6554 8.27 10.7354C8.3 10.8154 8.33 10.8754 8.35 10.9354C8.53 11.2654 8.84 11.6954 9.28 12.2154C9.73 12.7354 10.21 13.2654 10.73 13.7954C11.27 14.3254 11.79 14.8154 12.32 15.2654C12.84 15.7054 13.27 16.0054 13.61 16.1854C13.66 16.2054 13.72 16.2354 13.79 16.2654C13.87 16.2954 13.95 16.3054 14.04 16.3054C14.21 16.3054 14.34 16.2454 14.45 16.1354L15.21 15.3854C15.46 15.1354 15.7 14.9454 15.93 14.8254C16.16 14.6854 16.39 14.6154 16.64 14.6154C16.83 14.6154 17.03 14.6554 17.25 14.7454C17.47 14.8354 17.7 14.9654 17.95 15.1354L21.26 17.4854C21.52 17.6654 21.7 17.8754 21.81 18.1254C21.91 18.3754 21.97 18.6254 21.97 18.9054Z" stroke="black" stroke-width="1.5" stroke-miterlimit="10"/>
</svg>
