<svg width="25" height="25" viewBox="0 0 25 25" fill="none" xmlns="http://www.w3.org/2000/svg">
<path d="M10.7502 8.80042H13.7502M7.01017 22.8004H17.4902C20.2502 22.8004 21.3502 21.1104 21.4802 19.0504L22.0002 10.7904C22.0326 10.2782 21.9596 9.76487 21.7857 9.28203C21.6119 8.79918 21.3409 8.35712 20.9894 7.98316C20.6379 7.60921 20.2135 7.31131 19.7424 7.10788C19.2712 6.90444 18.7634 6.7998 18.2502 6.80042C17.6402 6.80042 17.0802 6.45042 16.8002 5.91042L16.0802 4.46042C15.6202 3.55042 14.4202 2.80042 13.4002 2.80042H11.1102C10.0802 2.80042 8.88017 3.55042 8.42017 4.46042L7.70017 5.91042C7.42017 6.45042 6.86017 6.80042 6.25017 6.80042C4.08017 6.80042 2.36017 8.63041 2.50017 10.7904L3.02017 19.0504C3.14017 21.1104 4.25017 22.8004 7.01017 22.8004Z" stroke="black" stroke-width="1.5" stroke-linecap="round" stroke-linejoin="round"/>
<path d="M12.25 18.8004C14.04 18.8004 15.5 17.3404 15.5 15.5504C15.5 13.7604 14.04 12.3004 12.25 12.3004C10.46 12.3004 9 13.7604 9 15.5504C9 17.3404 10.46 18.8004 12.25 18.8004Z" stroke="black" stroke-width="1.5" stroke-linecap="round" stroke-linejoin="round"/>
</svg>
