<svg width="25" height="25" viewBox="0 0 25 25" fill="none" xmlns="http://www.w3.org/2000/svg">
<path d="M13.48 20.1002C14.38 21.3702 15.85 22.2002 17.53 22.2002C20.26 22.2002 22.48 19.9802 22.48 17.2502C22.48 15.5902 21.66 14.1202 20.41 13.2202M10.49 18.2002C12.6091 18.2002 14.6414 17.3584 16.1398 15.86C17.6382 14.3616 18.48 12.3293 18.48 10.2102C18.48 8.09113 17.6382 6.05885 16.1398 4.56043C14.6414 3.06202 12.6091 2.22021 10.49 2.22021C8.37092 2.22021 6.33863 3.06202 4.84022 4.56043C3.3418 6.05885 2.5 8.09113 2.5 10.2102C2.5 12.3293 3.3418 14.3616 4.84022 15.86C6.33863 17.3584 8.37092 18.2002 10.49 18.2002Z" stroke="black" stroke-width="1.5" stroke-linecap="round" stroke-linejoin="round"/>
<path d="M7.49707 5.9751H13.4971" stroke="black" stroke-width="1.5" stroke-linecap="round"/>
<path d="M7.49707 8.4751H13.4971" stroke="black" stroke-width="1.5" stroke-linecap="round"/>
<path d="M12.4955 5.9751C12.5414 7.64176 11.6061 10.9751 7.49707 10.9751" stroke="black" stroke-width="1.5" stroke-linecap="round"/>
<path d="M7.49848 10.9751C7.45873 12.1916 8.26773 14.6245 11.8218 14.6245" stroke="black" stroke-width="1.5" stroke-linecap="round"/>
</svg>
