<svg width="25" height="25" viewBox="0 0 25 25" fill="none" xmlns="http://www.w3.org/2000/svg">
<path d="M14.5 2.22021H9.5C4.5 2.22021 2.5 4.22021 2.5 9.22021V15.2202C2.5 20.2202 4.5 22.2202 9.5 22.2202M14.5 2.22021V6.22021C14.5 9.22021 15.5 10.2202 18.5 10.2202H22.5M14.5 2.22021L22.5 10.2202M22.5 10.2202V13.2202" stroke="black" stroke-width="1.5" stroke-linecap="round" stroke-linejoin="round"/>
<path d="M14.2601 18.4802C11.9101 18.6502 11.9101 22.0502 14.2601 22.2202H19.8201C20.4901 22.2202 21.1501 21.9702 21.6401 21.5202C23.2901 20.0802 22.4101 17.2002 20.2401 16.9302C19.4601 12.2402 12.6801 14.0202 14.2801 18.4902" stroke="black" stroke-width="1.5" stroke-miterlimit="10" stroke-linecap="round" stroke-linejoin="round"/>
</svg>
