<svg width="25" height="25" viewBox="0 0 25 25" fill="none" xmlns="http://www.w3.org/2000/svg">
<path d="M11.5 2.30151H9.5C4.5 2.30151 2.5 4.30151 2.5 9.30151V15.3015C2.5 20.3015 4.5 22.3015 9.5 22.3015H15.5C20.5 22.3015 22.5 20.3015 22.5 15.3015V13.3015" stroke="black" stroke-width="1.5" stroke-linecap="round" stroke-linejoin="round"/>
<path d="M16.5399 3.32152L8.65988 11.2015C8.35988 11.5015 8.05988 12.0915 7.99988 12.5215L7.56988 15.5315C7.40988 16.6215 8.17988 17.3815 9.26988 17.2315L12.2799 16.8015C12.6999 16.7415 13.2899 16.4415 13.5999 16.1415L21.4799 8.26152C22.8399 6.90152 23.4799 5.32152 21.4799 3.32152C19.4799 1.32152 17.8999 1.96152 16.5399 3.32152Z" stroke="black" stroke-width="1.5" stroke-miterlimit="10" stroke-linecap="round" stroke-linejoin="round"/>
<path d="M15.4102 4.45154C15.7417 5.62901 16.3701 6.7016 17.2351 7.56658C18.1001 8.43156 19.1727 9.05995 20.3502 9.39154" stroke="black" stroke-width="1.5" stroke-miterlimit="10" stroke-linecap="round" stroke-linejoin="round"/>
</svg>
