<svg width="25" height="25" viewBox="0 0 25 25" fill="none" xmlns="http://www.w3.org/2000/svg">
<path d="M11.1799 2.67546L11.1238 2.73154M5.6499 2.67542H18.8499C19.9499 2.67542 20.8499 3.57541 20.8499 4.67541V6.87542C20.8499 7.67542 20.3499 8.67542 19.8499 9.17542L15.5499 12.9754C14.9499 13.4754 14.5499 14.4754 14.5499 15.2754V19.5754C14.5499 20.1754 14.1499 20.9754 13.6499 21.2754L12.2499 22.1754C10.9499 22.9754 9.1499 22.0754 9.1499 20.4754V15.1754C9.1499 14.4754 8.7499 13.5754 8.3499 13.0754L4.5499 9.07542C4.0499 8.57542 3.6499 7.67542 3.6499 7.07542V4.77541C3.6499 3.57541 4.5499 2.67542 5.6499 2.67542Z" stroke="black" stroke-width="1.5" stroke-miterlimit="10" stroke-linecap="round" stroke-linejoin="round"/>
</svg>
