<svg width="24" height="25" viewBox="0 0 24 25" fill="none" xmlns="http://www.w3.org/2000/svg">
<path d="M17.54 8.88545C18.1924 8.88545 18.8181 8.62628 19.2795 8.16494C19.7408 7.7036 20 7.07789 20 6.42545C20 5.77302 19.7408 5.14731 19.2795 4.68597C18.8181 4.22463 18.1924 3.96545 17.54 3.96545C16.8876 3.96545 16.2619 4.22463 15.8005 4.68597C15.3392 5.14731 15.08 5.77302 15.08 6.42545C15.08 7.07789 15.3392 7.7036 15.8005 8.16494C16.2619 8.62628 16.8876 8.88545 17.54 8.88545ZM6.46 8.88545C7.11243 8.88545 7.73814 8.62628 8.19948 8.16494C8.66082 7.7036 8.92 7.07789 8.92 6.42545C8.92 5.77302 8.66082 5.14731 8.19948 4.68597C7.73814 4.22463 7.11243 3.96545 6.46 3.96545C5.80757 3.96545 5.18186 4.22463 4.72052 4.68597C4.25918 5.14731 4 5.77302 4 6.42545C4 7.07789 4.25918 7.7036 4.72052 8.16494C5.18186 8.62628 5.80757 8.88545 6.46 8.88545ZM17.54 21.1855C17.8631 21.1855 18.1829 21.1218 18.4814 20.9982C18.7799 20.8746 19.051 20.6934 19.2795 20.4649C19.5079 20.2365 19.6891 19.9653 19.8127 19.6669C19.9364 19.3684 20 19.0485 20 18.7255C20 18.4024 19.9364 18.0825 19.8127 17.7841C19.6891 17.4856 19.5079 17.2144 19.2795 16.986C19.051 16.7575 18.7799 16.5763 18.4814 16.4527C18.1829 16.3291 17.8631 16.2655 17.54 16.2655C16.8876 16.2655 16.2619 16.5246 15.8005 16.986C15.3392 17.4473 15.08 18.073 15.08 18.7255C15.08 19.3779 15.3392 20.0036 15.8005 20.4649C16.2619 20.9263 16.8876 21.1855 17.54 21.1855ZM6.46 21.1855C6.78305 21.1855 7.10294 21.1218 7.4014 20.9982C7.69986 20.8746 7.97105 20.6934 8.19948 20.4649C8.42792 20.2365 8.60912 19.9653 8.73274 19.6669C8.85637 19.3684 8.92 19.0485 8.92 18.7255C8.92 18.4024 8.85637 18.0825 8.73274 17.7841C8.60912 17.4856 8.42792 17.2144 8.19948 16.986C7.97105 16.7575 7.69986 16.5763 7.4014 16.4527C7.10294 16.3291 6.78305 16.2655 6.46 16.2655C5.80757 16.2655 5.18186 16.5246 4.72052 16.986C4.25918 17.4473 4 18.073 4 18.7255C4 19.3779 4.25918 20.0036 4.72052 20.4649C5.18186 20.9263 5.80757 21.1855 6.46 21.1855Z" stroke="black" stroke-width="1.5" stroke-miterlimit="10" stroke-linecap="round" stroke-linejoin="round"/>
</svg>
