<svg width="82" height="82" viewBox="0 0 82 82" fill="none" xmlns="http://www.w3.org/2000/svg">
<circle cx="41" cy="41" r="39.5" stroke="#FF6C3E" stroke-width="3"/>
<path d="M40.5172 18.624C43.1625 18.624 45.5092 19.1574 47.5572 20.224C49.6478 21.2907 51.2692 22.784 52.4212 24.704C53.6158 26.624 54.2132 28.864 54.2132 31.424C54.2132 40.4267 48.7732 44.9707 37.8932 45.056L37.7652 53.248H35.3332L35.1412 42.88H36.4212C40.9865 42.88 44.6345 42.0907 47.3652 40.512C50.0958 38.9334 51.4612 35.904 51.4612 31.424C51.4612 28.2667 50.4585 25.7494 48.4532 23.872C46.4478 21.9947 43.8238 21.056 40.5812 21.056C37.2958 21.056 34.6718 21.952 32.7092 23.744C30.7892 25.536 29.8291 27.9467 29.8291 30.976H27.0771C27.0771 28.4587 27.6532 26.2614 28.8052 24.384C29.9572 22.5067 31.5571 21.0774 33.6051 20.096C35.6531 19.1147 37.9572 18.624 40.5172 18.624ZM36.5491 64.192C35.8238 64.192 35.2265 63.9574 34.7572 63.488C34.2878 63.0187 34.0532 62.4214 34.0532 61.696C34.0532 60.9707 34.2878 60.3734 34.7572 59.904C35.2265 59.4347 35.8238 59.2 36.5491 59.2C37.2318 59.2 37.8078 59.4347 38.2772 59.904C38.7465 60.3734 38.9812 60.9707 38.9812 61.696C38.9812 62.4214 38.7465 63.0187 38.2772 63.488C37.8078 63.9574 37.2318 64.192 36.5491 64.192Z" fill="#FF6C3E"/>
</svg>
