<svg width="24" height="25" viewBox="0 0 24 25" fill="none" xmlns="http://www.w3.org/2000/svg">
<path d="M12.0201 3.48547C8.71009 3.48547 6.02009 6.17547 6.02009 9.48547V12.3755C6.02009 12.9855 5.76009 13.9155 5.45009 14.4355L4.30009 16.3455C3.59009 17.5255 4.08009 18.8355 5.38009 19.2755C9.69009 20.7155 14.3401 20.7155 18.6501 19.2755C19.8601 18.8755 20.3901 17.4455 19.7301 16.3455L18.5801 14.4355C18.2801 13.9155 18.0201 12.9855 18.0201 12.3755V9.48547C18.0201 6.18547 15.3201 3.48547 12.0201 3.48547Z" stroke="black" stroke-width="1.5" stroke-miterlimit="10" stroke-linecap="round"/>
<path d="M13.8699 3.77538C12.6606 3.43097 11.3792 3.43097 10.1699 3.77538C10.4599 3.03538 11.1799 2.51538 12.0199 2.51538C12.8599 2.51538 13.5799 3.03538 13.8699 3.77538Z" stroke="black" stroke-width="1.5" stroke-miterlimit="10" stroke-linecap="round" stroke-linejoin="round"/>
<path d="M15.02 19.6355C15.02 21.2855 13.67 22.6355 12.02 22.6355C11.2 22.6355 10.44 22.2955 9.90002 21.7555C9.33818 21.1928 9.02181 20.4307 9.02002 19.6355" stroke="black" stroke-width="1.5" stroke-miterlimit="10"/>
</svg>
