<svg width="25" height="25" viewBox="0 0 25 25" fill="none" xmlns="http://www.w3.org/2000/svg">
<path d="M12.5 22.3804C18.023 22.3804 22.5 17.9034 22.5 12.3804C22.5 6.85737 18.023 2.38037 12.5 2.38037C6.977 2.38037 2.5 6.85737 2.5 12.3804C2.5 17.9034 6.977 22.3804 12.5 22.3804Z" stroke="black" stroke-width="1.5" stroke-linecap="round" stroke-linejoin="round"/>
<path d="M12.6198 13.1604C12.5401 13.1503 12.4595 13.1503 12.3798 13.1604C11.5317 13.1318 10.728 12.7747 10.1383 12.1646C9.54866 11.5544 9.21929 10.7389 9.21977 9.89036C9.21977 8.08036 10.6798 6.61036 12.4998 6.61036C13.3592 6.60886 14.1848 6.94517 14.7986 7.54676C15.4124 8.14835 15.7652 8.96705 15.7809 9.82634C15.7966 10.6856 15.4741 11.5167 14.8827 12.1404C14.2914 12.764 13.4787 13.1304 12.6198 13.1604ZM19.2398 19.7604C17.402 21.4494 14.9958 22.3848 12.4998 22.3804C9.89977 22.3804 7.53977 21.3904 5.75977 19.7604C5.85977 18.8204 6.45977 17.9004 7.52977 17.1804C10.2698 15.3604 14.7498 15.3604 17.4698 17.1804C18.5398 17.9004 19.1398 18.8204 19.2398 19.7604Z" stroke="black" stroke-width="1.5" stroke-linecap="round" stroke-linejoin="round"/>
</svg>
