<svg width="25" height="25" viewBox="0 0 25 25" fill="none" xmlns="http://www.w3.org/2000/svg">
<path d="M7.14699 20.1104C7.96699 19.2304 9.21699 19.3004 9.93699 20.2604L10.947 21.6104C11.757 22.6804 13.067 22.6804 13.877 21.6104L14.887 20.2604C15.607 19.3004 16.857 19.2304 17.677 20.1104C19.457 22.0104 20.907 21.3804 20.907 18.7204V7.4504C20.917 3.4204 19.977 2.4104 16.197 2.4104H8.63699C4.85699 2.4104 3.91699 3.4204 3.91699 7.4504V18.7104C3.91699 21.3804 5.37699 22.0004 7.14699 20.1104Z" stroke="black" stroke-width="1.5" stroke-linecap="round" stroke-linejoin="round"/>
<path d="M8.51318 11.4104H8.52318" stroke="black" stroke-width="2" stroke-linecap="round" stroke-linejoin="round"/>
<path d="M11.3149 11.4104H16.8149" stroke="black" stroke-width="1.5" stroke-linecap="round" stroke-linejoin="round"/>
<path d="M8.51318 7.4104H8.52318" stroke="black" stroke-width="2" stroke-linecap="round" stroke-linejoin="round"/>
<path d="M11.3149 7.4104H16.8149" stroke="black" stroke-width="1.5" stroke-linecap="round" stroke-linejoin="round"/>
</svg>
