<svg width="25" height="25" viewBox="0 0 25 25" fill="none" xmlns="http://www.w3.org/2000/svg">
<path d="M2.5 9.22021V6.72021C2.5 4.23021 4.51 2.22021 7 2.22021H9.5M15.5 2.22021H18C20.49 2.22021 22.5 4.23021 22.5 6.72021V9.22021M22.5 16.2202V17.7202C22.5 20.2102 20.49 22.2202 18 22.2202H16.5M9.5 22.2202H7C4.51 22.2202 2.5 20.2102 2.5 17.7202V15.2202M11 7.22021V9.22021C11 10.2202 10.5 10.7202 9.5 10.7202H7.5C6.5 10.7202 6 10.2202 6 9.22021V7.22021C6 6.22021 6.5 5.72021 7.5 5.72021H9.5C10.5 5.72021 11 6.22021 11 7.22021ZM19 7.22021V9.22021C19 10.2202 18.5 10.7202 17.5 10.7202H15.5C14.5 10.7202 14 10.2202 14 9.22021V7.22021C14 6.22021 14.5 5.72021 15.5 5.72021H17.5C18.5 5.72021 19 6.22021 19 7.22021ZM11 15.2202V17.2202C11 18.2202 10.5 18.7202 9.5 18.7202H7.5C6.5 18.7202 6 18.2202 6 17.2202V15.2202C6 14.2202 6.5 13.7202 7.5 13.7202H9.5C10.5 13.7202 11 14.2202 11 15.2202ZM19 15.2202V17.2202C19 18.2202 18.5 18.7202 17.5 18.7202H15.5C14.5 18.7202 14 18.2202 14 17.2202V15.2202C14 14.2202 14.5 13.7202 15.5 13.7202H17.5C18.5 13.7202 19 14.2202 19 15.2202Z" stroke="black" stroke-width="1.5" stroke-linecap="round" stroke-linejoin="round"/>
</svg>
