<svg width="25" height="25" viewBox="0 0 25 25" fill="none" xmlns="http://www.w3.org/2000/svg">
<path d="M22.25 22.5754L20.25 20.5754M11.75 21.5754C12.9976 21.5754 14.2329 21.3297 15.3855 20.8523C16.5381 20.3749 17.5854 19.6751 18.4675 18.793C19.3497 17.9108 20.0494 16.8635 20.5269 15.7109C21.0043 14.5583 21.25 13.323 21.25 12.0754C21.25 10.8279 21.0043 9.59254 20.5269 8.43995C20.0494 7.28735 19.3497 6.24008 18.4675 5.35792C17.5854 4.47577 16.5381 3.776 15.3855 3.29858C14.2329 2.82116 12.9976 2.57544 11.75 2.57544C9.23044 2.57544 6.81408 3.57633 5.03249 5.35792C3.25089 7.13952 2.25 9.55588 2.25 12.0754C2.25 14.595 3.25089 17.0114 5.03249 18.793C6.81408 20.5745 9.23044 21.5754 11.75 21.5754Z" stroke="black" stroke-width="1.5" stroke-linecap="round" stroke-linejoin="round"/>
</svg>
