<svg width="25" height="25" viewBox="0 0 25 25" fill="none" xmlns="http://www.w3.org/2000/svg">
<path d="M13.7358 3.61548L15.4958 7.13548C15.7358 7.62548 16.3758 8.09548 16.9158 8.18548L20.1058 8.71548C22.1458 9.05548 22.6258 10.5355 21.1558 11.9955L18.6758 14.4755C18.2558 14.8955 18.0258 15.7055 18.1558 16.2855L18.8658 19.3555C19.4258 21.7855 18.1358 22.7255 15.9858 21.4555L12.9958 19.6855C12.4558 19.3655 11.5658 19.3655 11.0158 19.6855L8.02577 21.4555C5.88577 22.7255 4.58577 21.7755 5.14577 19.3555L5.85577 16.2855C5.98577 15.7055 5.75577 14.8955 5.33577 14.4755L2.85577 11.9955C1.39577 10.5355 1.86577 9.05548 3.90577 8.71548L7.09577 8.18548C7.62577 8.09548 8.26577 7.62548 8.50577 7.13548L10.2658 3.61548C11.2258 1.70548 12.7858 1.70548 13.7358 3.61548Z" stroke="black" stroke-width="1.5" stroke-linecap="round" stroke-linejoin="round"/>
</svg>
