<svg width="25" height="25" viewBox="0 0 25 25" fill="none" xmlns="http://www.w3.org/2000/svg">
<path d="M14.2333 3.92042L15.9933 7.44042C16.2333 7.93042 16.8733 8.40042 17.4133 8.49042L20.6033 9.02041C22.6433 9.36041 23.1233 10.8404 21.6533 12.3004L19.1733 14.7804C18.7533 15.2004 18.5233 16.0104 18.6533 16.5904L19.3633 19.6604C19.9233 22.0904 18.6333 23.0304 16.4833 21.7604L13.4933 19.9904C12.9533 19.6704 12.0633 19.6704 11.5133 19.9904L8.52333 21.7604C6.38333 23.0304 5.08333 22.0804 5.64333 19.6604L6.35333 16.5904C6.48333 16.0104 6.25333 15.2004 5.83333 14.7804L3.35333 12.3004C1.89333 10.8404 2.36333 9.36041 4.40333 9.02041L7.59333 8.49042C8.12333 8.40042 8.76333 7.93042 9.00333 7.44042L10.7633 3.92042C11.7233 2.01042 13.2833 2.01042 14.2333 3.92042Z" fill="black" stroke="black" stroke-width="1.5" stroke-linecap="round" stroke-linejoin="round"/>
</svg>
