<svg width="25" height="25" viewBox="0 0 25 25" fill="none" xmlns="http://www.w3.org/2000/svg">
<path d="M4.32422 22.407C4.32422 18.537 8.17422 15.407 12.9142 15.407C13.8742 15.407 14.8042 15.537 15.6742 15.777M12.9142 12.407C14.2403 12.407 15.5121 11.8802 16.4498 10.9425C17.3874 10.0048 17.9142 8.73306 17.9142 7.40698C17.9142 6.0809 17.3874 4.80913 16.4498 3.87145C15.5121 2.93377 14.2403 2.40698 12.9142 2.40698C11.5881 2.40698 10.3164 2.93377 9.37868 3.87145C8.441 4.80913 7.91422 6.0809 7.91422 7.40698C7.91422 8.73306 8.441 10.0048 9.37868 10.9425C10.3164 11.8802 11.5881 12.407 12.9142 12.407Z" stroke="black" stroke-width="1.5" stroke-linecap="round" stroke-linejoin="round"/>
<path d="M22.9141 18.407C22.9141 19.157 22.7041 19.867 22.3341 20.467C22.1241 20.827 21.8541 21.147 21.5441 21.407C20.8441 22.037 19.9241 22.407 18.9141 22.407C18.2246 22.4085 17.5467 22.2303 16.947 21.8902C16.3474 21.55 15.8466 21.0595 15.4941 20.467C15.1134 19.8475 14.9126 19.1342 14.9141 18.407C14.9141 17.147 15.4941 16.017 16.4141 15.287C17.0021 14.8158 17.7113 14.5202 18.4599 14.4344C19.2086 14.3487 19.9662 14.4762 20.6456 14.8023C21.3249 15.1283 21.8983 15.6397 22.2996 16.2775C22.701 16.9153 22.914 17.6535 22.9141 18.407Z" stroke="black" stroke-width="1.5" stroke-miterlimit="10" stroke-linecap="round" stroke-linejoin="round"/>
<path d="M17.354 18.407L18.344 19.397L20.474 17.427" stroke="black" stroke-width="1.5" stroke-linecap="round" stroke-linejoin="round"/>
</svg>
