<svg width="24" height="25" viewBox="0 0 24 25" fill="none" xmlns="http://www.w3.org/2000/svg">
<path d="M12.0002 8.1604V13.4104M21.0802 8.9904V15.8304C21.0802 16.9504 20.4802 17.9904 19.5102 18.5604L13.5702 21.9904C12.6002 22.5504 11.4002 22.5504 10.4202 21.9904L4.48016 18.5604C4.00193 18.2831 3.60509 17.8849 3.32951 17.4057C3.05392 16.9265 2.9093 16.3832 2.91016 15.8304V8.9904C2.91016 7.8704 3.51016 6.8304 4.48016 6.2604L10.4202 2.8304C11.3902 2.2704 12.5902 2.2704 13.5702 2.8304L19.5102 6.2604C20.4802 6.8304 21.0802 7.8604 21.0802 8.9904Z" stroke="black" stroke-width="1.5" stroke-linecap="round" stroke-linejoin="round"/>
<path d="M12 16.6104V16.7104" stroke="black" stroke-width="2" stroke-linecap="round" stroke-linejoin="round"/>
</svg>
